{"title":"Star Trek Into Darkness 2013 BRRip XviD MP3 - Idiocracy","uid":8987670,"size":1054831439,"categoryP":"video","categoryS":"movies","magnet":"?xt=urn:btih:198944d6b8bf6779b3d189b7b82ab9097426359e&amp;dn=Star+Trek+Into+Darkness+2013+BRRip+XviD+MP3+-+Idiocracy&amp;tr=udp%3A%2F%2Ftracker.openbittorrent.com%3A80&amp;tr=udp%3A%2F%2Fopen.demonii.com%3A1337&amp;tr=udp%3A%2F%2Ftracker.coppersurfer.tk%3A6969&amp;tr=udp%3A%2F%2Fexodus.desync.com%3A6969","seeders":5,"leechers":0,"uploader":"Satafakap","files":3,"time":1380712698,"description":"General\n\nComplete name       : Star.Trek.Into.Darkness.2013.BRRip.XviD.MP3-Idiocracy.avi\nFormat              : AVI\nFormat/Info         : Audio Video Interleave\nFile size           : 1 000 MiB\nDuration            : 2h 12mn\nOverall bit rate    : 1 058 Kbps\nWriting application : VirtualDubMod 1.5.10.3 | www.virtualdub-fr.org || (build \n                      2550/release)\nWriting library     : VirtualDubMod build 2550/release\nSource\t\t    : Star.Trek.Into.Darkness.2013.1080p.BluRay.x264.YIFY - Thanks.\nSample\t\t    : Yes\n\nVideo\n\nID                                       : 0\nFormat                                   : MPEG-4 Visual\nFormat profile                           : Advanced Simple@L5\nFormat settings, BVOP                    : 4\nFormat settings, QPel                    : No\nFormat settings, GMC                     : No warppoints\nFormat settings, Matrix                  : Default (H.263)\nCodec ID                                 : XVID\nCodec ID/Hint                            : XviD\nDuration                                 : 2h 12mn\nBit rate                                 : 921 Kbps\nWidth                                    : 672 pixels\nHeight                                   : 280 pixels\nDisplay aspect ratio                     : 2.40:1\nFrame rate                               : 23.976 fps\nColor space                              : YUV\nChroma subsampling                       : 4:2:0\nBit depth                                : 8 bits\nScan type                                : Progressive\nCompression mode                         : Lossy\nBits/(Pixel*Frame)                       : 0.204\nStream size                              : 870 MiB (87%)\nWriting library                          : XviD 1.2.1 (UTC 2008-12-04)\n\nAudio\n\nID                                       : 1\nFormat                                   : MPEG Audio\nFormat version                           : Version 1\nFormat profile                           : Layer 3\nCodec ID                                 : 55\nCodec ID/Hint                            : MP3\nDuration                                 : 2h 12mn\nBit rate mode                            : Constant\nBit rate                                 : 128 Kbps\nChannel(s)                               : 2 channels\nSampling rate                            : 48.0 KHz\nCompression mode                         : Lossy\nStream size                              : 121 MiB (12%)\nAlignment                                : Aligned on interleaves\nInterleave, duration                     : 42 ms (1.00 video frame)\nInterleave, preload duration             : 504 ms\nWriting library                          : LAME3.99r\nEncoding settings                        : -m s -V 4 -q 2 -lowpass 17 -b 128","torrent":{"xt":"urn:btih:198944d6b8bf6779b3d189b7b82ab9097426359e","amp;dn":"Star+Trek+Into+Darkness+2013+BRRip+XviD+MP3+-+Idiocracy","amp;tr":["udp%3A%2F%2Ftracker.openbittorrent.com%3A80","udp%3A%2F%2Fopen.demonii.com%3A1337","udp%3A%2F%2Ftracker.coppersurfer.tk%3A6969","udp%3A%2F%2Fexodus.desync.com%3A6969"],"infoHash":"198944d6b8bf6779b3d189b7b82ab9097426359e","infoHashBuffer":{"type":"Buffer","data":[25,137,68,214,184,191,103,121,179,209,137,183,184,42,185,9,116,38,53,158]},"announce":[],"urlList":[]}}